<?xml version="1.0" encoding="UTF-8"?>
<svg width="629px" height="106px" viewBox="0 0 629 106" version="1.1" xmlns="http://www.w3.org/2000/svg" xmlns:xlink="http://www.w3.org/1999/xlink">
    <!-- Generator: Sketch 54.1 (76490) - https://sketchapp.com -->
    <title>High Res Forsyth Logo</title>
    <desc>Created with Sketch.</desc>
    <g id="Symbols" stroke="none" stroke-width="1" fill="none" fill-rule="evenodd">
        <g id="Logo" fill="#0A0B09">
            <g id="High-Res-Forsyth-Logo">
                <path d="M34.778,17.093 C34.991,17.093 35.125,17.093 35.178,17.093 C35.604,17.467 35.79,18.054 35.738,18.853 C35.684,19.76 35.644,20.507 35.618,21.094 C35.59,21.68 35.578,22.107 35.578,22.374 L35.578,28.776 C35.578,28.882 35.59,29.095 35.618,29.416 C35.644,29.736 35.67,30.123 35.698,30.576 C35.724,31.029 35.751,31.509 35.778,32.016 C35.804,32.523 35.818,32.963 35.818,33.336 C35.818,35.469 35.444,36.83 34.698,37.416 C34.111,37.842 33.471,37.842 32.778,37.416 C32.297,37.043 32.031,36.536 31.978,35.895 L31.978,33.256 C31.871,30.856 31.151,29.337 29.818,28.696 C29.391,28.483 28.031,28.403 25.738,28.456 C23.285,28.563 21.844,28.776 21.419,29.095 C20.884,29.416 20.591,30.136 20.539,31.256 C20.539,32.002 20.539,32.721 20.539,33.415 C20.539,34.108 20.511,34.801 20.459,35.495 C20.333,38.001 20.24,40.227 20.177,42.174 C20.115,44.12 20.084,45.814 20.084,47.253 C20.084,49.226 20.084,50.612 20.084,51.411 C20.084,52.212 20.056,52.48 20.003,52.212 C20.11,54.025 20.59,55.038 21.444,55.251 C21.87,55.359 22.483,55.439 23.284,55.491 C24.083,55.544 25.017,55.599 26.084,55.652 L29.284,55.812 C29.763,56.025 30.056,56.185 30.164,56.292 C30.27,56.398 30.403,56.691 30.563,57.171 C30.563,57.011 30.616,57.198 30.723,57.732 C30.83,58.53 30.509,59.064 29.763,59.331 L23.683,59.331 C21.923,59.278 20.365,59.237 19.007,59.21 C17.65,59.185 16.492,59.171 15.535,59.171 C14.311,59.171 12.887,59.185 11.262,59.21 C9.637,59.237 7.758,59.278 5.626,59.331 C4.826,59.331 4.239,59.251 3.866,59.091 C3.225,58.823 2.986,58.37 3.146,57.73 C3.412,56.771 3.945,56.183 4.746,55.97 C5.119,55.862 6.159,55.73 7.866,55.569 C9.252,55.517 10.345,55.089 11.146,54.288 C11.679,53.755 11.946,52.581 11.946,50.767 C11.946,51.142 11.878,50.595 11.746,49.126 C11.612,47.659 11.412,45.245 11.146,41.883 C11.042,40.497 10.963,38.989 10.912,37.362 C10.859,35.735 10.833,33.987 10.833,32.119 C10.833,28.971 10.901,25.757 11.037,22.475 C11.171,19.194 11.375,15.793 11.646,12.271 C11.699,9.657 11.059,7.896 9.726,6.989 C9.193,6.616 7.78,6.376 5.487,6.268 L2.207,6.268 C1.353,5.894 0.712,5.44 0.287,4.906 C0.019,4.638 -0.061,4.211 0.046,3.623 C0.099,2.928 0.393,2.581 0.926,2.581 L44.036,2.581 C44.088,2.581 44.275,2.571 44.595,2.55 C44.916,2.529 45.289,2.508 45.715,2.487 C46.142,2.467 46.595,2.446 47.076,2.425 C47.555,2.404 47.956,2.393 48.276,2.393 C50.142,2.393 51.235,2.683 51.555,3.263 C51.608,3.369 51.702,3.924 51.835,4.925 C51.968,5.927 52.142,7.388 52.356,9.308 C52.729,13.148 52.888,15.148 52.835,15.308 C52.409,15.895 51.956,16.162 51.476,16.108 C50.409,15.948 48.968,14.162 47.156,10.749 C46.036,8.669 43.396,7.309 39.236,6.669 C38.222,6.562 36.915,6.468 35.315,6.388 C33.715,6.308 31.795,6.268 29.555,6.268 L27.476,6.268 C23.262,6.268 20.702,6.802 19.795,7.87 C19.21,8.618 18.917,9.846 18.917,11.555 C18.917,12.57 19.076,14.225 19.396,16.521 L19.396,18.604 C19.396,22.556 20.283,24.88 22.058,25.573 C22.431,25.787 23.79,25.893 26.138,25.893 C28.484,25.893 29.871,25.76 30.298,25.494 C31.418,24.694 32.058,23.708 32.218,22.534 C32.111,20.827 32.245,19.427 32.618,18.334 C32.991,17.241 33.471,16.8 34.058,17.013 C34.378,17.067 34.618,17.093 34.778,17.093" id="Fill-1"></path>
                <path d="M105.783,11.475 C102.906,16.064 101.468,23.001 101.468,32.285 C101.468,37.835 102.054,42.183 103.226,45.331 C103.918,47.253 104.65,48.919 105.423,50.333 C106.195,51.747 107.008,52.909 107.861,53.816 C109.672,55.737 112.256,57.204 115.613,58.218 C117.371,58.751 119.422,59.019 121.767,59.019 C126.562,59.019 130.37,57.925 133.194,55.737 C139.055,51.202 141.958,42.584 141.905,29.884 C141.852,18.626 138.921,10.862 133.114,6.592 C129.651,4.085 125.362,2.831 120.248,2.831 C118.489,2.831 116.971,3.045 115.692,3.471 C111.59,4.859 108.287,7.527 105.783,11.475 Z M150.644,39.751 C146.06,51.648 138.466,58.743 127.86,61.038 C126.475,61.359 124.85,61.519 122.984,61.519 C119.2,61.519 115.47,60.931 111.793,59.757 C107.529,58.478 103.985,56.556 101.161,53.995 C95.032,48.341 91.968,40.871 91.968,31.588 C91.968,30.68 92.008,29.787 92.088,28.906 C92.168,28.026 92.261,27.132 92.367,26.225 C94.072,15.075 99.402,7.365 108.355,3.096 C112.086,1.337 116.482,0.456 121.546,0.456 C127.674,0.456 132.87,1.71 137.134,4.217 C146.3,9.66 151.203,17.583 151.843,27.986 C152.003,30.494 151.603,34.416 150.644,39.751 L150.644,39.751 Z" id="Fill-3"></path>
                <g id="Group-7" transform="translate(188.000000, 0.000000)">
                    <path d="M19.312,14.05 L19.312,18.531 C19.312,18.371 19.338,18.585 19.392,19.171 C19.445,19.757 19.525,20.744 19.632,22.131 C19.685,22.771 19.739,23.411 19.792,24.05 C19.845,24.691 20.166,25.171 20.752,25.491 L25.792,25.491 C25.899,25.491 26.139,25.518 26.512,25.571 C26.885,25.625 27.445,25.705 28.192,25.811 C29.045,25.971 29.872,25.944 30.672,25.731 C32.752,25.251 34.352,24.211 35.472,22.611 C36.591,21.011 37.152,19.144 37.152,17.01 C37.152,13.864 36.325,11.385 34.672,9.571 C33.499,8.292 31.685,7.304 29.232,6.611 C27.152,6.025 25.178,5.731 23.312,5.731 C22.406,5.731 21.765,5.811 21.392,5.97 C20.005,6.557 19.312,9.251 19.312,14.05 Z M18.993,47.243 C18.993,47.404 18.979,47.683 18.953,48.083 C18.925,48.484 18.885,48.978 18.833,49.564 C18.778,50.044 18.751,50.497 18.751,50.923 C18.751,51.296 18.751,51.616 18.751,51.882 C18.751,53.909 19.178,55.031 20.034,55.243 C20.46,55.351 21.074,55.431 21.874,55.484 C22.673,55.536 23.607,55.591 24.674,55.644 L27.875,55.804 C28.354,56.019 28.647,56.179 28.754,56.284 C28.861,56.392 28.994,56.687 29.154,57.167 C29.154,57.007 29.207,57.193 29.314,57.728 C29.367,58.048 29.327,58.343 29.194,58.611 C29.061,58.878 28.754,59.118 28.274,59.331 L22.194,59.331 C20.701,59.278 19.366,59.237 18.19,59.21 C17.014,59.185 15.971,59.171 15.063,59.171 C14.208,59.171 13.206,59.185 12.057,59.21 C10.909,59.237 9.587,59.278 8.094,59.331 L4.174,59.331 C2.307,59.331 1.455,58.798 1.615,57.73 C1.88,56.771 2.441,56.183 3.294,55.97 C3.667,55.862 4.708,55.73 6.415,55.569 C7.801,55.517 8.894,55.089 9.695,54.288 C11.135,52.849 11.695,50.341 11.375,46.765 C11.319,45.378 11.277,43.964 11.25,42.524 C11.221,41.084 11.179,39.67 11.125,38.282 C11.018,35.135 10.938,32.614 10.885,30.719 C10.832,28.825 10.805,27.531 10.805,26.837 C10.805,25.61 10.844,23.449 10.924,20.354 C11.004,17.26 11.154,13.205 11.375,8.189 C11.427,6.909 10.495,6.268 8.575,6.268 L5.695,6.268 C5.162,6.322 4.548,6.336 3.855,6.308 C3.162,6.282 2.361,6.215 1.455,6.107 C0.814,5.947 0.467,5.466 0.415,4.661 C0.254,3.966 0.307,3.403 0.575,2.973 C0.681,2.76 0.761,2.628 0.815,2.574 C1.028,2.574 1.987,2.601 3.694,2.654 C5.401,2.708 7.908,2.788 11.214,2.893 L12.417,2.893 L25.474,2.574 C33.26,2.361 38.967,4.388 42.594,8.657 C44.407,10.792 45.314,13.407 45.314,16.503 C45.314,17.516 45.208,18.424 44.995,19.224 C44.407,21.787 43.394,23.708 41.955,24.988 C41.42,25.416 40.673,25.896 39.713,26.429 C38.753,26.963 37.553,27.577 36.114,28.27 C40.86,30.299 44.753,34.141 47.794,39.798 L50.995,45.802 C51.208,46.175 51.713,46.976 52.514,48.204 C53.314,49.431 54.408,51.165 55.794,53.407 C56.38,54.368 57.234,55.062 58.354,55.487 C58.781,55.648 59.927,55.968 61.794,56.448 C62.38,56.876 62.674,57.357 62.674,57.89 C62.674,58.318 62.567,58.663 62.354,58.931 C62.14,59.198 61.473,59.331 60.354,59.331 L45.074,59.331 C43.42,59.331 42.514,58.984 42.354,58.288 C42.194,57.648 42.22,56.9 42.434,56.044 C42.541,55.777 43.527,55.644 45.394,55.644 C46.887,55.644 47.874,55.376 48.354,54.843 C48.354,54.63 48.167,54.177 47.794,53.484 C47.634,53.271 47.288,52.763 46.754,51.962 L35.074,37.643 C31.554,33.377 29.208,30.843 28.034,30.043 C26.487,28.976 23.901,28.31 20.274,28.043 L19.875,28.603 L18.993,47.243 L18.993,47.243 Z" id="Fill-4"></path>
                    <path d="M146.462,18.059 C146.515,18.806 146.327,19.313 145.901,19.58 C145.581,19.74 145.261,19.714 144.942,19.5 C144.302,19.073 143.636,17.793 142.942,15.659 C142.515,14.38 142.087,13.26 141.661,12.299 C141.235,11.339 140.808,10.539 140.382,9.898 C138.888,7.658 136.862,5.951 134.302,4.777 C132.222,3.817 129.821,3.337 127.102,3.337 C124.968,3.337 123.341,3.737 122.221,4.537 C120.036,6.084 119.049,8.057 119.261,10.458 C119.634,14.565 123.477,18.246 130.788,21.5 L135.03,23.421 C139.032,25.288 142.501,27.928 145.437,31.342 C148.583,35.077 150.45,39.05 151.038,43.265 C151.091,43.585 151.132,43.905 151.159,44.226 C151.185,44.546 151.198,44.892 151.198,45.265 C151.198,50.28 149.231,54.361 145.298,57.507 C142.157,60.015 137.681,61.269 131.868,61.269 C127.335,61.269 122.109,60.528 116.189,59.052 L113.388,58.333 C111.042,57.747 109.628,57.454 109.149,57.454 C107.815,57.454 106.322,58.066 104.668,59.288 C104.348,59.341 103.522,60.081 102.189,61.509 C101.122,62.415 100.242,62.814 99.548,62.708 C99.015,62.656 98.749,62.308 98.749,61.669 C98.749,61.085 99.015,60.292 99.548,59.288 C99.708,58.919 99.868,58.575 100.028,58.255 C100.188,57.935 100.348,57.615 100.508,57.294 C100.881,56.28 101.295,55.161 101.749,53.935 C102.202,52.708 102.695,51.347 103.228,49.855 C103.655,48.415 104.215,46.921 104.909,45.374 C105.282,45.161 105.761,45.294 106.348,45.775 C106.775,46.095 107.148,46.974 107.468,48.413 C107.895,50.228 108.135,51.161 108.189,51.214 C108.881,52.761 111.122,54.361 114.909,56.013 C117.788,57.241 120.241,58.068 122.268,58.493 C123.014,58.601 123.761,58.694 124.508,58.775 C125.254,58.855 126.001,58.894 126.749,58.894 C131.655,58.894 135.415,57.64 138.028,55.13 C140.642,52.677 141.948,49.769 141.948,46.406 C141.948,40.855 138.239,35.732 130.821,31.036 L126.657,28.393 C123.614,26.419 121.106,24.205 119.131,21.75 C116.836,18.814 115.609,15.96 115.449,13.184 C115.182,8.915 116.506,5.633 119.421,3.338 C120.381,2.537 121.822,1.737 123.742,0.936 C126.461,0.616 127.875,0.456 127.982,0.456 C129.101,0.403 130.567,0.563 132.382,0.936 C134.194,1.309 135.981,1.896 137.741,2.696 C139.021,3.23 140.114,3.497 141.022,3.497 C141.981,3.497 142.728,3.364 143.261,3.096 C143.368,3.044 143.528,2.95 143.741,2.816 C143.954,2.683 144.194,2.509 144.462,2.297 C144.835,1.924 145.235,1.736 145.661,1.736 C146.247,1.736 146.702,2.056 147.022,2.696 C147.022,2.803 146.942,3.603 146.782,5.096 C146.675,6.004 146.581,6.843 146.501,7.617 C146.421,8.39 146.382,9.071 146.382,9.658 C146.327,11.045 146.302,12.085 146.302,12.778 C146.302,13.471 146.302,13.845 146.302,13.898 L146.462,18.059" id="Fill-6"></path>
                </g>
                <path d="M401.603,20.087 C402.673,21.874 403.716,23.46 404.733,24.845 L410.901,14.766 C411.327,14.179 411.728,13.566 412.101,12.925 C412.474,12.286 412.874,11.673 413.3,11.086 C414.579,9.006 415.087,7.726 414.821,7.246 C414.501,6.606 413.78,6.286 412.661,6.286 L410.181,6.286 C409.114,6.286 408.341,5.592 407.86,4.206 C407.593,3.556 407.78,3.096 408.421,2.825 C408.741,2.555 409.435,2.474 410.501,2.581 C411.888,2.634 413.101,2.675 414.14,2.701 C415.181,2.728 416.073,2.741 416.821,2.741 C417.728,2.741 418.767,2.728 419.94,2.701 C421.114,2.675 422.446,2.634 423.94,2.581 C425.007,2.581 425.659,2.688 425.899,2.901 C426.14,3.115 426.286,3.648 426.341,4.502 C426.446,5.409 425.913,5.942 424.741,6.102 C424.101,6.21 423.46,6.29 422.821,6.342 C422.181,6.396 421.567,6.476 420.979,6.583 C419.38,6.956 418.126,7.863 417.22,9.303 L411.22,18.988 C410.153,20.695 409.313,22.109 408.7,23.229 C408.087,24.35 407.673,25.177 407.46,25.711 C407.14,26.778 406.979,28.939 406.979,32.193 L406.979,48.841 C406.979,52.47 407.407,54.55 408.261,55.083 C408.687,55.456 410.847,55.644 414.741,55.644 C415.54,55.644 415.94,56.312 415.94,57.648 C415.94,58.288 415.792,58.73 415.499,58.97 C415.206,59.21 414.341,59.331 412.901,59.331 C412.634,59.331 412.153,59.316 411.46,59.284 C410.767,59.253 409.808,59.206 408.581,59.144 C406.015,58.984 404.011,58.903 402.565,58.903 C401.976,58.903 401.253,58.917 400.397,58.943 C399.542,58.97 398.554,59.011 397.433,59.064 C394.925,59.241 393.325,59.331 392.632,59.331 C391.085,59.331 390.151,59.171 389.833,58.849 C389.245,58.101 389.218,57.3 389.753,56.444 C390.071,55.911 390.817,55.644 391.991,55.644 C392.364,55.644 392.991,55.683 393.872,55.763 C394.751,55.843 395.378,55.882 395.753,55.882 C396.552,55.882 397.165,55.724 397.593,55.403 C398.392,54.71 398.792,52.23 398.792,47.96 L398.792,37.075 C398.792,33.821 398.659,31.794 398.392,30.993 C397.858,30.087 397.325,29.166 396.792,28.232 C396.259,27.299 395.726,26.378 395.192,25.47 L387.032,11.224 C385.005,7.703 382.872,5.942 380.632,5.942 C380.046,5.942 379.325,6.022 378.472,6.182 C376.872,6.503 376.071,5.756 376.071,3.941 L376.071,3.221 C376.392,2.688 377.325,2.474 378.872,2.581 C382.444,2.741 385.272,2.82 387.353,2.82 C387.673,2.82 389.966,2.741 394.231,2.581 C396.737,2.474 398.044,2.555 398.151,2.825 C398.204,2.933 398.259,3.028 398.312,3.109 C398.364,3.191 398.444,3.286 398.552,3.393 C398.927,4.256 398.927,4.926 398.552,5.406 C398.179,6.099 397.245,6.366 395.753,6.206 C394.366,6.046 393.673,6.206 393.673,6.686 C393.673,7.113 394.206,8.099 395.272,9.646 C396.765,11.833 397.726,13.299 398.151,14.046 C399.382,16.286 400.532,18.299 401.603,20.087" id="Fill-8"></path>
                <g id="Group-12" transform="translate(464.000000, 1.000000)">
                    <path d="M6.825,0.831 C7.251,0.981 7.704,1.143 8.185,1.318 C8.665,1.494 9.278,1.581 10.024,1.581 L48.737,1.581 C52.202,1.581 54.149,1.742 54.577,2.062 C55.056,3.078 55.536,4.092 56.017,5.107 C56.497,6.122 57.003,7.135 57.536,8.148 L58.257,9.428 C58.63,10.015 58.817,10.762 58.817,11.669 C58.39,12.095 57.829,12.308 57.136,12.308 C56.763,12.308 56.202,11.962 55.456,11.268 C53.749,9.402 52.603,8.256 52.017,7.828 C49.829,6.122 47.644,5.268 45.456,5.268 L39.616,5.268 C37.589,5.268 36.229,5.669 35.536,6.469 C34.896,7.217 34.522,11.301 34.417,18.719 C34.63,22.297 34.724,25.9 34.696,29.529 C34.669,33.159 34.534,36.815 34.292,40.499 C34.124,42.902 34.042,45.009 34.042,46.823 C34.042,50.827 34.575,53.282 35.642,54.191 C36.122,54.458 37.454,54.671 39.642,54.831 C41.614,54.884 42.735,55.228 43.001,55.865 C43.161,56.607 43.028,57.271 42.603,57.853 C42.175,58.331 39.854,58.491 35.642,58.331 C34.147,58.224 32.812,58.144 31.636,58.091 C30.46,58.038 29.417,58.011 28.509,58.011 C27.493,58.011 26.292,58.038 24.905,58.091 C23.519,58.144 21.917,58.224 20.104,58.331 C19.198,58.331 18.505,58.292 18.024,58.212 C17.544,58.132 17.21,58.013 17.024,57.855 C16.837,57.694 16.731,57.495 16.704,57.257 C16.677,57.019 16.665,56.739 16.665,56.421 C16.665,55.732 16.798,55.202 17.063,54.831 L20.825,54.644 C23.063,54.591 24.45,54.243 24.983,53.603 C25.89,52.431 26.265,48.484 26.104,41.764 C25.929,36.965 25.798,33.191 25.714,30.445 C25.628,27.699 25.612,25.898 25.667,25.045 C25.782,20.246 25.884,16.592 25.972,14.086 C26.06,11.58 26.104,10.166 26.104,9.845 C25.997,8.673 25.944,8.059 25.944,8.006 C25.677,7.58 25.091,7.099 24.185,6.566 C22.478,5.66 19.784,5.206 16.104,5.206 C13.491,5.206 11.597,5.552 10.425,6.246 C9.677,6.566 8.29,7.42 6.265,8.806 C5.304,9.606 4.185,10.646 2.905,11.925 L1.384,13.286 C0.903,13.126 0.665,12.967 0.665,12.806 C0.665,12.219 0.958,11.286 1.544,10.006 L5.304,2.581 C5.517,2.104 6.024,1.52 6.825,0.831" id="Fill-9"></path>
                    <path d="M151.696,1.581 L154.257,1.903 L156.577,1.903 C156.522,1.903 156.655,1.89 156.976,1.863 C157.296,1.836 157.776,1.796 158.417,1.742 C159.056,1.688 159.63,1.648 160.136,1.621 C160.644,1.594 161.11,1.608 161.536,1.661 C162.603,1.661 163.269,1.796 163.536,2.064 C164.069,2.601 164.202,3.219 163.937,3.917 C163.776,4.454 163.271,4.883 162.417,5.206 C162.149,5.313 161.403,5.313 160.177,5.206 C159.271,5.099 158.522,5.393 157.937,6.087 C157.509,6.514 157.296,7.395 157.296,8.73 C157.296,9.05 157.31,9.438 157.337,9.891 C157.362,10.345 157.403,10.786 157.456,11.213 C157.509,11.64 157.55,12.013 157.577,12.334 C157.603,12.654 157.616,12.841 157.616,12.894 C158.042,16.899 158.362,20.716 158.577,24.347 C158.79,27.978 158.897,31.501 158.897,34.913 C158.897,36.993 158.856,38.914 158.776,40.674 C158.696,42.433 158.55,44.06 158.337,45.554 C157.749,50.3 157.804,53.021 158.497,53.714 C159.19,54.407 159.989,54.753 160.897,54.753 C162.177,54.7 162.897,54.7 163.058,54.753 C163.909,54.966 164.417,55.366 164.577,55.952 C164.79,56.966 164.577,57.659 163.937,58.032 C163.136,58.405 160.79,58.433 156.897,58.112 L154.978,58.112 C154.71,58.112 154.271,58.154 153.657,58.234 C153.044,58.314 152.63,58.353 152.417,58.353 L145.937,58.353 C144.976,58.353 144.243,58.3 143.737,58.193 C143.229,58.087 142.856,57.927 142.616,57.714 C142.376,57.501 142.257,57.261 142.257,56.993 C142.257,56.728 142.282,56.433 142.337,56.113 C142.39,55.474 142.655,55.021 143.136,54.753 C143.669,54.7 144.204,54.673 144.737,54.673 C145.271,54.673 145.829,54.648 146.417,54.593 C147.376,54.487 148.044,54.3 148.417,54.032 C149.323,53.286 149.696,51.447 149.536,48.513 L148.897,36.913 L148.897,33.393 C148.79,31.421 148.577,30.247 148.257,29.873 C147.937,29.553 145.884,29.393 142.097,29.393 L121.456,29.331 C121.509,29.331 121.376,29.352 121.058,29.393 C120.737,29.393 120.202,29.367 119.456,29.313 C118.87,29.26 118.337,29.233 117.856,29.233 C117.376,29.233 116.95,29.233 116.577,29.233 C115.616,29.287 114.95,29.5 114.577,29.873 C114.31,30.193 114.149,31.313 114.097,33.233 C114.044,33.82 114.017,34.433 114.017,35.073 C114.017,35.66 114.017,36.247 114.017,36.834 L113.536,47.073 C113.483,47.659 113.442,48.247 113.417,48.833 C113.39,49.421 113.349,50.007 113.296,50.593 C113.188,52.3 113.376,53.366 113.856,53.794 C114.442,54.487 115.19,54.781 116.097,54.673 C117.216,54.62 117.964,54.648 118.337,54.753 C119.19,55.073 119.696,55.474 119.856,55.952 C120.069,56.7 119.937,57.314 119.456,57.794 C118.923,58.38 116.497,58.486 112.177,58.112 L110.257,58.112 C109.937,58.112 109.483,58.154 108.897,58.234 C108.31,58.314 107.909,58.353 107.696,58.353 L101.136,58.353 C99.323,58.353 98.257,58.14 97.937,57.714 C97.616,57.286 97.509,56.753 97.616,56.113 C97.669,55.474 97.937,55.021 98.417,54.753 C98.95,54.7 99.483,54.673 100.017,54.673 C100.55,54.673 101.083,54.673 101.616,54.673 C102.577,54.568 103.271,54.353 103.696,54.032 C104.763,53.126 105.296,51.501 105.296,49.153 C105.296,48.993 105.269,48.46 105.216,47.554 C105.163,46.648 105.083,45.341 104.978,43.634 C104.71,39.313 104.509,35.46 104.376,32.072 C104.243,28.685 104.229,25.736 104.337,23.226 C104.39,22.213 104.456,20.971 104.536,19.503 C104.616,18.034 104.763,16.339 104.978,14.417 C105.136,13.242 105.216,12.147 105.216,11.132 C105.216,8.463 104.71,6.727 103.696,5.926 C103.271,5.606 102.577,5.393 101.616,5.286 C101.083,5.286 100.55,5.286 100.017,5.286 C99.483,5.286 98.95,5.259 98.417,5.206 C97.937,4.938 97.669,4.481 97.616,3.837 C97.509,3.138 97.63,2.588 97.976,2.185 C98.323,1.783 99.376,1.581 101.136,1.581 L107.696,1.581 C107.909,1.581 108.31,1.623 108.897,1.706 C109.483,1.79 109.937,1.831 110.257,1.831 L112.177,1.831 C116.55,1.458 118.976,1.539 119.456,2.074 C119.937,2.609 120.069,3.224 119.856,3.92 C119.696,4.456 119.19,4.884 118.337,5.206 C118.177,5.259 117.351,5.259 115.856,5.206 C114.735,5.206 113.989,5.606 113.616,6.405 C113.349,7.098 113.323,9.257 113.536,12.881 C113.589,13.84 113.644,15.185 113.696,16.918 C113.749,18.65 113.829,20.795 113.937,23.352 C113.937,23.512 113.95,23.726 113.978,23.993 C114.003,24.259 114.044,24.605 114.097,25.031 C114.202,25.672 114.575,26.098 115.216,26.311 C117.776,25.991 119.083,25.831 119.136,25.831 L123.696,25.831 C128.229,25.831 134.47,26.081 142.417,26.581 L148.417,26.581 C148.843,26.581 149.058,25.914 149.058,24.58 L149.058,14.412 C149.216,13.132 149.296,12.01 149.296,11.049 C149.296,8.434 148.79,6.727 147.776,5.926 C147.296,5.553 146.55,5.34 145.536,5.286 C144.522,5.233 143.483,5.206 142.417,5.206 C142.044,4.991 141.804,4.535 141.696,3.837 C141.644,3.514 141.616,3.219 141.616,2.95 C141.616,2.628 141.724,2.373 141.937,2.185 C142.149,1.998 142.495,1.849 142.976,1.742 C143.456,1.634 144.177,1.581 145.136,1.581 L151.696,1.581" id="Fill-11"></path>
                </g>
                <path d="M236.292,94.23 C236.175,94.098 236.058,93.987 235.94,93.9 C235.691,93.724 235.453,93.611 235.226,93.559 C234.998,93.507 234.789,93.482 234.599,93.482 C233.924,93.482 233.377,93.672 232.959,94.054 C232.542,94.435 232.333,94.861 232.333,95.329 C232.333,95.373 232.336,95.417 232.344,95.461 C232.351,95.505 232.354,95.549 232.354,95.593 C232.413,95.843 232.545,96.088 232.75,96.33 C232.956,96.572 233.242,96.774 233.608,96.935 C233.813,97.037 234.122,97.173 234.532,97.342 C234.943,97.511 235.368,97.712 235.809,97.948 C236.322,98.211 236.806,98.512 237.261,98.85 C237.715,99.187 238.016,99.554 238.163,99.95 C238.192,100.053 238.218,100.159 238.239,100.269 C238.262,100.379 238.287,100.486 238.316,100.588 C238.346,100.736 238.368,100.882 238.383,101.029 C238.397,101.175 238.404,101.315 238.404,101.446 C238.404,102.576 238.012,103.571 237.228,104.429 C236.443,105.287 235.486,105.716 234.356,105.716 L234.181,105.738 C233.153,105.724 232.229,105.342 231.408,104.593 C230.587,103.845 230.177,102.993 230.177,102.039 L231.694,101.621 C231.826,102.488 232.135,103.133 232.618,103.559 C233.103,103.985 233.623,104.204 234.181,104.219 C234.195,104.219 234.21,104.219 234.225,104.219 C234.239,104.219 234.254,104.219 234.269,104.219 C234.313,104.219 234.353,104.219 234.39,104.219 C234.426,104.219 234.467,104.212 234.511,104.196 C235.009,104.154 235.479,103.944 235.918,103.57 C236.358,103.196 236.652,102.686 236.799,102.039 C236.813,101.951 236.82,101.863 236.82,101.776 C236.82,101.688 236.82,101.607 236.82,101.533 C236.82,100.903 236.597,100.392 236.149,100.003 C235.702,99.615 235.207,99.295 234.665,99.046 C234.591,99.017 234.514,98.984 234.434,98.947 C234.353,98.909 234.269,98.876 234.181,98.847 C234.137,98.833 234.089,98.815 234.037,98.792 C233.986,98.771 233.938,98.752 233.895,98.737 C233.103,98.414 232.376,98.015 231.717,97.537 C231.057,97.061 230.727,96.301 230.727,95.259 C230.727,95.069 230.76,94.856 230.825,94.62 C230.892,94.386 230.983,94.144 231.101,93.894 C231.364,93.409 231.761,92.962 232.289,92.551 C232.816,92.14 233.499,91.935 234.334,91.935 C235.023,91.935 235.592,92.016 236.039,92.178 C236.486,92.34 236.916,92.627 237.326,93.04 C237.443,93.157 237.561,93.286 237.679,93.426 C237.796,93.566 237.913,93.724 238.03,93.9 L236.645,94.714 C236.527,94.523 236.41,94.361 236.292,94.23" id="Fill-13"></path>
                <path d="M248.568,100.629 L253.255,100.629 L250.923,95.394 L248.568,100.629 Z M257.259,105.45 L255.477,105.45 L253.958,102.169 L248.019,102.169 L246.501,105.45 L244.719,105.45 L250.923,91.685 L257.259,105.45 L257.259,105.45 Z" id="Fill-14"></path>
                <polygon id="Fill-15" points="264.034 105.453 265.662 105.453 265.662 92.385 264.034 92.385"></polygon>
                <polyline id="Fill-16" points="283.702 102.046 283.702 92.388 285.33 92.388 285.33 106 275.408 95.947 275.408 105.45 273.648 105.45 273.648 91.684 283.702 102.046"></polyline>
                <polyline id="Fill-17" points="292.039 93.903 292.039 92.388 300.024 92.388 300.024 93.903 297.011 93.903 297.011 105.45 295.185 105.45 295.185 93.903 292.039 93.903"></polyline>
                <polyline id="Fill-18" points="327.129 92.385 327.129 104.089 331.133 104.089 331.133 105.453 325.479 105.453 325.479 92.385 327.129 92.385"></polyline>
                <path d="M348.326,95.536 C347.645,94.788 346.9,94.268 346.094,93.974 C345.8,93.871 345.515,93.791 345.235,93.733 C344.957,93.674 344.686,93.637 344.422,93.622 L344.18,93.622 C342.742,93.622 341.518,94.14 340.505,95.173 C339.493,96.207 338.958,97.392 338.899,98.726 C338.899,98.741 338.899,98.763 338.899,98.792 C338.899,98.822 338.899,98.851 338.899,98.88 C338.885,98.909 338.878,98.939 338.878,98.968 C338.878,98.997 338.878,99.02 338.878,99.034 C338.878,100.355 339.328,101.538 340.23,102.587 C341.132,103.636 342.478,104.183 344.268,104.226 C344.297,104.226 344.319,104.23 344.333,104.238 C344.349,104.244 344.362,104.248 344.378,104.248 C344.407,104.248 344.429,104.252 344.443,104.259 C344.458,104.267 344.473,104.271 344.487,104.271 C345.793,104.271 346.827,103.922 347.589,103.226 C348.353,102.529 348.88,101.762 349.174,100.926 C349.291,100.618 349.375,100.314 349.427,100.013 C349.478,99.712 349.503,99.431 349.503,99.166 L349.503,98.859 C349.401,97.392 349.009,96.284 348.326,95.536 Z M339.604,93.791 C340.952,92.648 342.559,92.075 344.422,92.075 C346.064,92.075 347.461,92.596 348.612,93.638 C349.764,94.679 350.538,95.823 350.934,97.069 C351.021,97.349 351.087,97.627 351.132,97.906 C351.175,98.185 351.197,98.456 351.197,98.72 C351.197,100.788 350.552,102.471 349.262,103.769 C347.971,105.068 346.218,105.716 344.003,105.716 L343.762,105.738 C342.06,105.724 340.696,105.229 339.669,104.253 C338.643,103.278 337.938,102.196 337.558,101.008 C337.44,100.67 337.355,100.329 337.305,99.985 C337.253,99.64 337.228,99.314 337.228,99.006 C337.228,98.991 337.228,98.973 337.228,98.95 C337.228,98.929 337.235,98.91 337.249,98.896 C337.249,98.881 337.249,98.866 337.249,98.852 C337.249,98.823 337.253,98.796 337.261,98.775 C337.268,98.753 337.271,98.735 337.271,98.72 C337.477,96.578 338.254,94.936 339.604,93.791 L339.604,93.791 Z" id="Fill-19"></path>
                <path d="M367.808,92.385 L367.808,100.635 C367.808,102.102 367.353,103.316 366.443,104.277 C365.534,105.238 364.368,105.717 362.945,105.717 L362.703,105.739 C361.397,105.622 360.415,105.248 359.755,104.617 C359.095,103.987 358.633,103.297 358.369,102.549 C358.267,102.271 358.186,101.992 358.127,101.713 C358.068,101.435 358.032,101.171 358.017,100.921 L358.017,92.385 L359.667,92.385 L359.667,100.217 C359.667,100.306 359.671,100.398 359.679,100.492 C359.686,100.587 359.689,100.687 359.689,100.789 C359.777,101.611 360.06,102.373 360.536,103.077 C361.013,103.781 361.786,104.163 362.857,104.222 C363.811,104.222 364.599,103.892 365.222,103.232 C365.846,102.571 366.157,101.618 366.157,100.371 L366.157,92.385 L367.808,92.385" id="Fill-20"></path>
                <polygon id="Fill-21" points="375.507 105.453 377.135 105.453 377.135 92.385 375.507 92.385"></polygon>
                <path d="M390.841,94.23 C390.724,94.098 390.606,93.987 390.489,93.9 C390.239,93.724 390.001,93.611 389.774,93.559 C389.547,93.507 389.338,93.482 389.147,93.482 C388.473,93.482 387.927,93.672 387.509,94.054 C387.091,94.435 386.882,94.861 386.882,95.329 C386.882,95.373 386.885,95.417 386.893,95.461 C386.899,95.505 386.903,95.549 386.903,95.593 C386.962,95.843 387.094,96.088 387.3,96.33 C387.505,96.572 387.79,96.774 388.157,96.935 C388.362,97.037 388.671,97.173 389.081,97.342 C389.492,97.511 389.917,97.712 390.357,97.948 C390.87,98.211 391.354,98.512 391.81,98.85 C392.264,99.187 392.564,99.554 392.712,99.95 C392.741,100.053 392.767,100.159 392.788,100.269 C392.811,100.379 392.836,100.486 392.865,100.588 C392.895,100.736 392.917,100.882 392.932,101.029 C392.946,101.175 392.953,101.315 392.953,101.446 C392.953,102.576 392.562,103.571 391.776,104.429 C390.991,105.287 390.034,105.716 388.905,105.716 L388.729,105.738 C387.702,105.724 386.778,105.342 385.957,104.593 C385.136,103.845 384.726,102.993 384.726,102.039 L386.243,101.621 C386.375,102.488 386.684,103.133 387.167,103.559 C387.651,103.985 388.172,104.204 388.729,104.219 C388.744,104.219 388.759,104.219 388.773,104.219 C388.788,104.219 388.803,104.219 388.817,104.219 C388.861,104.219 388.901,104.219 388.938,104.219 C388.975,104.219 389.016,104.212 389.06,104.196 C389.558,104.154 390.027,103.944 390.468,103.57 C390.907,103.196 391.2,102.686 391.348,102.039 C391.362,101.951 391.369,101.863 391.369,101.776 C391.369,101.688 391.369,101.607 391.369,101.533 C391.369,100.903 391.146,100.392 390.698,100.003 C390.251,99.615 389.756,99.295 389.214,99.046 C389.14,99.017 389.063,98.984 388.982,98.947 C388.901,98.909 388.817,98.876 388.729,98.847 C388.686,98.833 388.638,98.815 388.586,98.792 C388.535,98.771 388.487,98.752 388.443,98.737 C387.651,98.414 386.925,98.015 386.266,97.537 C385.605,97.061 385.275,96.301 385.275,95.259 C385.275,95.069 385.309,94.856 385.374,94.62 C385.44,94.386 385.532,94.144 385.649,93.894 C385.913,93.409 386.31,92.962 386.837,92.551 C387.365,92.14 388.048,91.935 388.884,91.935 C389.572,91.935 390.141,92.016 390.588,92.178 C391.035,92.34 391.465,92.627 391.875,93.04 C391.992,93.157 392.11,93.286 392.228,93.426 C392.345,93.566 392.462,93.724 392.579,93.9 L391.193,94.714 C391.076,94.523 390.958,94.361 390.841,94.23" id="Fill-22"></path>
            </g>
        </g>
    </g>
</svg>